<svg height="49" viewBox="0 0 220 49" width="220" xmlns="http://www.w3.org/2000/svg" xmlns:xlink="http://www.w3.org/1999/xlink"><filter id="a" height="138.5%" width="107.1%" x="-3.6%" y="-19.2%"><feOffset dx="0" dy="0" in="SourceAlpha" result="shadowOffsetOuter1"/><feGaussianBlur in="shadowOffsetOuter1" result="shadowBlurOuter1" stdDeviation="2.5"/><feColorMatrix in="shadowBlurOuter1" result="shadowMatrixOuter1" type="matrix" values="0 0 0 0 0   0 0 0 0 0   0 0 0 0 0  0 0 0 0.32702106 0"/><feMerge><feMergeNode in="shadowMatrixOuter1"/><feMergeNode in="SourceGraphic"/></feMerge></filter><g fill="none" fill-rule="evenodd" filter="url(#a)" transform="translate(5 5)"><path d="m.52303861 19.5c0-10.62499487 8.60909916-19.23825503 19.24675059-19.23825503h124.8503848v38.47651003h-124.8503848c-10.62968684 0-19.24675059-8.610924-19.24675059-19.238255z" fill="#fff"/><path d="m192.982939 0s-26.696305.00636597-48.888467.01153893l-.0737 38.98846107h45.438979c7.845579 0 20.460224-5.354255 20.460224-19.7481342 0-14.57238929-13.856862-19.2338054-18.891108-19.2338054-5.178605 0 16.65381-.0180604 1.954072-.0180604z" fill="#4d9d9d"/><g fill="#335e5b"><path d="m44.2003437 22.0062045h-25.5106062v-12.58021886s25.3601145.00618007 25.9618138 0c.4033604-.00403049 4.9451074 1.56355956 4.9451074 6.40014166 0 4.3999463-4.0263866 6.1800772-5.396315 6.1800772zm.7185107-14.0062045c-.2338902 0-27.8663484.03385608-27.8663484.03385608v14.24104742h-8.052506v1.3918609h8.052506v6.3332356h1.6706444v-6.3480141s25.9618138.0335874 26.0954654 0c.1336515-.0335873 6.1813842-1.3770824 6.1813842-7.6243343 0-6.0121403-5.4797136-8.0276516-6.0811456-8.0276516z"/><path d="m56.5629618 21.9747956v-12.50987734s25.6616947.0059346 26.2459237 0c.3916489-.00431608 4.8015267 1.44993184 4.8015267 6.30551774 0 4.4172343-3.9092214 6.2043596-5.239374 6.2043596zm-.0596946 1.6330954h25.7810839s2.1277252.2015068 3.2632214 1.4154033c1.1354962 1.2138964 1.4627786 2.1105613 1.5601069 4.9767057h1.5354504s.0877252-3.4245368-1.3301527-5.361376c-1.1354962-1.5510899-2.1087786-1.8545641-2.3034351-1.9557221v-.2697548s3.990458-1.2813351 3.990458-6.8450272-4.4225954-7.02333516-4.8015267-7.18222072c-.7999084-.33557493-1.2977099-.33719346-1.6221374-.3709128-.3244275-.03371935-27.5763359 0-27.5763359 0v21.98501362h1.5032672z"/><path d="m114.877289 19.4905786v-9.4213511h10.363644c.744402 0 6.997959 1.960968 6.997959 9.4213511zm10.363644 9.4141856h-10.363644v-7.9988598h17.361603c0 4.8101969-4.897784 7.9988598-6.997959 7.9988598zm-11.806531-9.4141856h-18.2799705c0-7.2541749 5.9911665-9.4213511 6.7358305-9.4213511h11.54414zm0 9.4141856h-11.19516c-2.2751895 0-7.0903207-4.3481525-7.0903207-8.0198256l18.2854807.0209658zm20.384344-9.4141856c0-7.8016749-6.451399-10.81836495-8.812915-10.81836495h-10.128542v-2.67221365h-1.442887v2.67221365h-11.151603c-2.6593296 0-8.6260935 2.96732755-8.79035 10.81836495h-2.492449v1.4153258h2.4927114c.4589213 5.8606112 6.4941691 9.4221473 8.6588916 9.4221473h11.282799v2.6719483h1.442887v-2.6719483h9.997347c3.450437 0 8.599854-3.8930084 8.921282-9.0378623l.022828-.384285h2.181254v-1.4153258z"/></g><path d="m174.130242 27.0510362h12.869758c-.123773.3951626-.373952.4160845-.787407.3873169-.126406.2798306-.292315.5413545-.458223.7764644-.123773-.0128146-.331817-.0052304-.413455-.1488071-.084271.1984967-.250179.240602-.416088.3580262-.373952.020922-.663634.0575353-.995451.0967639-5.064159 1.6345243-10.794585 1.2503457-16.148426 2.1261892-2.783575.3269048-5.438111.985945-8.137416 1.5223305-2.075173.0052305-4.482163 1.757179-6.351925.1569143-.373952-.6250421-.373952-1.46218-.081637-2.1183434.165908-.3297817.371319-.6171964.539861-.9234409 6.267654-6.5038375 12.121853-13.7768167 19.30332-19.096474-2.823077-.25106297-5.60402.5023873-8.34546.9234408-2.117308.4600205-4.234616.7973863-6.309789 1.341356-.331817 0-.621499.0421053-.913814-.1255315-.208044-.2508014-.497725-.5018643-.45559-.8392301v-.881597c.081638-.2089576.165909-.4184382.289682-.585552 2.699305-1.13239843 5.730426-.96502314 8.427098-1.9303078.292314 0 .53986-.16711376.832175-.12553147 3.194397-.25106292 6.349292-.7555425 9.546322-.96502313.289682.04210535.581996.08394917.871678.20948063.373952.41843822.705769.88107397.79004 1.42504365.081638.50500262-.250179.88133549-.497725 1.26080665-.500359.54396967-1.079722 1.00660547-1.577447 1.55057507-5.938471 4.4302146-11.418718 9.8725267-16.398606 15.5295498-.539861.8313845-1.163993 1.6447238-1.619583 2.539397.084271.0758419.165909.1331156.25018.1383461 1.327268-.4576668 2.738806-.6747316 4.10821-.9571774 3.98707-.7427279 7.929372-1.5089928 12.079718-1.6449853" fill="#fffefe"/><path d="m185.448774 21c-.360303 0-.690809-.0710141-.991749-.2130422-.300711-.1417359-.559248-.3562393-.775613-.6440947-.216136-.2875631-.38391-.6502317-.502865-1.0877134-.119184-.4374818-.178547-.9518224-.178547-1.543314 0-.5871081.061884-1.0947272.185652-1.5222728s.289021-.7869995.49576-1.078654c.206968-.2916545.464588-.5163863.773321-.6744876.308503-.157809.639927-.2364213.994041-.2364213.288333 0 .566353.0517263.834288.1557634.267935.1037448.506991.223855.716938.3594539v1.2648103h-.051799c-.062572-.0680917-.14325-.1458273-.242036-.2337912-.098785-.0879639-.218656-.1779736-.359614-.2697366-.122164-.0800735-.266331-.1499186-.432501-.2098276-.165941-.059909-.325923-.0897173-.479257-.0897173-.457713 0-.824892.2206404-1.102453.6619212-.277103.4415731-.415769 1.0660878-.415769 1.8729596 0 .7910909.133853 1.4074228.401788 1.8487037.267935.4415731.640156.6625057 1.116434.6625057.288104 0 .562457-.0759821.82237-.2276541.260142-.1519643.490488-.3477644.691038-.5874004h.051799v1.2645181c-.087784.0520185-.19757.1148499-.329131.1887863-.131561.0739365-.250745.1288774-.357094.1648228-.150585.0561099-.285354.0987768-.404309.1288774-.119184.0298084-.272748.0450048-.460692.0450048" fill="#fffffe"/><path d="m192.028192 17.5030398c0-.8589685-.13192-1.4973324-.395759-1.9148021-.264084-.4177592-.639811-.626494-1.127425-.626494-.49079 0-.869204.2087348-1.134753.626494-.26555.4174697-.398202 1.0558336-.398202 1.9148021 0 .8311758.132652 1.4614335.398202 1.890773.265549.429629.643963.6444435 1.134753.6444435.484438 0 .859188-.2110509 1.124737-.6325737.26555-.4215228.398447-1.0555441.398447-1.9026428zm.971808 0c0 1.1160511-.226951 1.9779147-.681341 2.5853013-.454145.6079656-1.058777.9116589-1.813651.9116589-.778082 0-1.390287-.313826-1.836126-.9411886-.44584-.6273626-.668882-1.4790935-.668882-2.5557716 0-1.1082344.229638-1.9692295.688914-2.5826957s1.064641-.9203441 1.816094-.9203441c.754874 0 1.359506.3057198 1.813651.9171595.45439.6114397.681341 1.4735928.681341 2.5858803z" fill="#fffffe"/><path d="m200.966912 21v-3.9390052c0-.3130867-.010984-.6026845-.032954-.8690906-.021969-.2661088-.067783-.4742387-.137441-.6246868-.073141-.1626385-.177629-.2824618-.313195-.3597672-.135298-.0773054-.318553-.115958-.54923-.115958-.212458 0-.440455.0722507-.684259.216455-.243537.1442042-.495379.3526313-.755258.624984.003483.0692775.008037.1513401.013663.2467825.005359.0957397.008306.2087245.008306.3386569v4.4816294h-1.033088v-3.9390052c0-.3130867-.010984-.6026845-.032954-.8690906-.021969-.2661088-.067783-.4742387-.137441-.6246868-.073141-.1626385-.177629-.2824618-.313195-.3597672-.135298-.0773054-.318553-.115958-.54923-.115958-.223442 0-.45787.0773053-.703282.2316187-.245412.1546107-.48359.3517394-.714266.5916833v5.0852058h-1.033088v-6.8108992h1.033088v.7561058c.270864-.3008962.539317-.5337042.804822-.6984241.265506-.1644226.557803-.2467825.876357-.2467825.362759 0 .683992.0915771.964233.274434s.493503.4837531.640053.9023914c.311588-.3862295.615405-.6788005.912257-.8780105.296585-.1992099.618889-.2988149.966913-.2988149.26363 0 .503684.0457886.719893.1370683.215941.0915772.404554.239052.56584.4421272.164769.2075352.29203.4656161.381782.7745402s.134762.6972349.134762 1.1646349v4.4816294z" fill="#fffffe"/><circle cx="180.5" cy="19.5" fill="#fff" r="1.5"/></g></svg>